# xmcd
#
# Track frame offsets:
#	150
#	10766
#	20337
#	30019
#	39772
#	52730
#	64180
#	75061
#	83545
#	91921
#	100326
#	108779
#	117986
#	127239
#	141505
#	152524
#	159228
#	171392
#	184195
#	193086
#	201576
#	210179
#	218856
#	227392
#	235982
#	237805
#	246402
#	264648
#	273106
#	286540
#	300620
#	311324
#	323174
#	335201
#	346436
#	349137
#
# Disc length: 4810 seconds
#
# Revision: 1
# Processed by: cddbd v1.5.2PL0 Copyright (c) Steve Scherf et al.
# Submitted via: audiograbber 1.83.01
#
DISCID=e012c824
DTITLE=Jerry Lee Lewis - Jerry Lee Lewis At Sun Records [CD 3)
DYEAR=2015
DGENRE=Rock and Roll
TTITLE0=Hand Me Down My Walking Cane [mono]
TTITLE1=You Win Again (1.1) [mono]
TTITLE2=You Win Again (1.2) [mono]
TTITLE3=You Win Again (1.3) [false start and take] [mono]
TTITLE4=You're The Only Star (In My Blue Heaven) (2.1) [chords and take] [mono]
TTITLE5=You're The Only Star (In My Blue Heaven) (2.2) [mono]
TTITLE6=You're The Only Star (In My Blue Heaven) (2.3) [mono]
TTITLE7=Sixty Minute Man (1) [mono]
TTITLE8=Sixty Minute Man (2) [mono]
TTITLE9=Sixty Minute Man (3) [mono]
TTITLE10=I'll Keep On Loving You [mono]
TTITLE11=Lewis Boogie (1) [mono]
TTITLE12=Lewis Boogie (2) [master] [mono]
TTITLE13=I'm Feelin' Sorry (1.1) [mono]
TTITLE14=I'm Feelin' Sorry (1.2) [mono]
TTITLE15=I'm Feelin' Sorry (1.3) [fragment] [mono]
TTITLE16=I'm Feelin' Sorry (1.4) [master] [mono]
TTITLE17=Turn Around [master] [mono]
TTITLE18=Great Balls Of Fire (1.1) [mono]
TTITLE19=Great Balls Of Fire (1.2) [mono]
TTITLE20=Great Balls Of Fire (1.3) [mono]
TTITLE21=Great Balls Of Fire (1.4) [mono]
TTITLE22=Great Balls Of Fire (1.5) [mono]
TTITLE23=Great Balls Of Fire (1.6) [mono]
TTITLE24=Great Balls Of Fire (1.7) [3 false starts] [mono]
TTITLE25=Great Balls Of Fire (1.8) [mono]
TTITLE26=Religious Discussion [mono]
TTITLE27=Great Balls Of Fire (1.9) [movie version] [mono]
TTITLE28=You Win Again (2) [chat and undubbed master] [mono]
TTITLE29=It All Depends (2) [mono]
TTITLE30=I Forgot To Remember To Forget (1.1) [4 false starts] [mono]
TTITLE31=I Forgot To Remember To Forget (1.2) [chat and take] [mono]
TTITLE32=I Forgot To Remember To Forget (1.3) [false start and take] [mono]
TTITLE33=I Forgot To Remember To Forget (1.4) [mono]
TTITLE34=I Forgot To Remember To Forget (1.5) [false start] [mono]
TTITLE35=I Forgot To Remember To Forget (1.6) [mono]
EXTD=
EXTT0=
EXTT1=
EXTT2=
EXTT3=
EXTT4=
EXTT5=
EXTT6=
EXTT7=
EXTT8=
EXTT9=
EXTT10=
EXTT11=
EXTT12=
EXTT13=
EXTT14=
EXTT15=
EXTT16=
EXTT17=
EXTT18=
EXTT19=
EXTT20=
EXTT21=
EXTT22=
EXTT23=
EXTT24=
EXTT25=
EXTT26=
EXTT27=
EXTT28=
EXTT29=
EXTT30=
EXTT31=
EXTT32=
EXTT33=
EXTT34=
EXTT35=
PLAYORDER=
